<?xml version="1.0" encoding="UTF-8" standalone="no"?>
<!-- Created with Inkscape (http://www.inkscape.org/) -->

<svg
   width="84.578545mm"
   height="7.4930587mm"
   viewBox="0 0 84.578545 7.4930587"
   version="1.1"
   id="svg5"
   inkscape:version="1.1.2 (1:1.1+202202050950+0a00cf5339)"
   sodipodi:docname="phone.svg"
   xmlns:inkscape="http://www.inkscape.org/namespaces/inkscape"
   xmlns:sodipodi="http://sodipodi.sourceforge.net/DTD/sodipodi-0.dtd"
   xmlns="http://www.w3.org/2000/svg"
   xmlns:svg="http://www.w3.org/2000/svg">
  <sodipodi:namedview
     id="namedview7"
     pagecolor="#ffffff"
     bordercolor="#666666"
     borderopacity="1.0"
     inkscape:pageshadow="2"
     inkscape:pageopacity="0.0"
     inkscape:pagecheckerboard="0"
     inkscape:document-units="mm"
     showgrid="false"
     inkscape:zoom="1.28"
     inkscape:cx="144.53125"
     inkscape:cy="128.125"
     inkscape:window-width="1920"
     inkscape:window-height="1004"
     inkscape:window-x="0"
     inkscape:window-y="0"
     inkscape:window-maximized="1"
     inkscape:current-layer="layer1" />
  <defs
     id="defs2" />
  <g
     inkscape:label="Calque 1"
     inkscape:groupmode="layer"
     id="layer1"
     transform="translate(-47.560338,-3.4703058)">
    <g
       aria-label="+33 6 52 09 92 27"
       id="text2378"
       style="font-size:10.5833px;line-height:1.25;stroke-width:0.264583">
      <path
         d="M 50.511053,7.718095 V 9.9298392 H 49.751412 V 7.718095 H 47.560338 V 6.9636215 h 2.191074 V 4.7518772 h 0.759641 v 2.2117443 h 2.191074 V 7.718095 Z"
         id="path11114" />
      <path
         d="m 58.644897,8.8498052 q 0,1.0076873 -0.640786,1.5606238 -0.640785,0.552936 -1.829339,0.552936 -1.105873,0 -1.767329,-0.496093 -0.656288,-0.5012594 -0.780311,-1.4779408 l 0.961178,-0.08785 q 0.186035,1.2919065 1.586462,1.2919065 0.702797,0 1.100704,-0.3462308 0.403075,-0.346231 0.403075,-1.0283577 0,-0.5942771 -0.459919,-0.9250052 Q 56.763881,7.5578985 55.900887,7.5578985 H 55.373789 V 6.7517488 h 0.506428 q 0.764809,0 1.183386,-0.3307281 0.423746,-0.3358958 0.423746,-0.9250052 0,-0.5839419 -0.346231,-0.9198376 -0.341064,-0.3410634 -1.018023,-0.3410634 -0.614947,0 -0.997352,0.3152253 -0.377236,0.3152252 -0.439248,0.8888318 l -0.93534,-0.072347 q 0.103352,-0.8939994 0.73897,-1.3952592 0.640786,-0.5012598 1.643306,-0.5012598 1.095536,0 1.700149,0.511595 0.60978,0.5064274 0.60978,1.4159298 0,0.6976296 -0.39274,1.1368778 -0.387572,0.4340807 -1.13171,0.5891095 v 0.020671 q 0.816485,0.08785 1.271236,0.5477684 0.454751,0.4599188 0.454751,1.1575484 z"
         id="path11116" />
      <path
         d="m 64.530824,8.8498052 q 0,1.0076873 -0.640786,1.5606238 -0.640786,0.552936 -1.82934,0.552936 -1.105872,0 -1.767328,-0.496093 -0.656289,-0.5012594 -0.780312,-1.4779408 l 0.961179,-0.08785 q 0.186034,1.2919065 1.586461,1.2919065 0.702798,0 1.100705,-0.3462308 0.403075,-0.346231 0.403075,-1.0283577 0,-0.5942771 -0.459919,-0.9250052 Q 62.649808,7.5578985 61.786814,7.5578985 H 61.259716 V 6.7517488 h 0.506428 q 0.764808,0 1.183386,-0.3307281 0.423746,-0.3358958 0.423746,-0.9250052 0,-0.5839419 -0.346231,-0.9198376 -0.341064,-0.3410634 -1.018023,-0.3410634 -0.614948,0 -0.997352,0.3152253 -0.377237,0.3152252 -0.439248,0.8888318 l -0.935341,-0.072347 q 0.103353,-0.8939994 0.738971,-1.3952592 0.640786,-0.5012598 1.643305,-0.5012598 1.095537,0 1.70015,0.511595 0.609779,0.5064274 0.609779,1.4159298 0,0.6976296 -0.392739,1.1368778 -0.387572,0.4340807 -1.13171,0.5891095 v 0.020671 q 0.816485,0.08785 1.271236,0.5477684 0.454751,0.4599188 0.454751,1.1575484 z"
         id="path11118" />
      <path
         d="m 73.357131,8.4777361 q 0,1.1523808 -0.625283,1.8190049 -0.625282,0.666624 -1.725987,0.666624 -1.229895,0 -1.881016,-0.91467 -0.651121,-0.9146703 -0.651121,-2.6613281 0,-1.8913514 0.676959,-2.9042063 0.676959,-1.0128548 1.927525,-1.0128548 1.648473,0 2.077386,1.4831088 l -0.888832,0.1601965 q -0.273884,-0.8888318 -1.198889,-0.8888318 -0.795815,0 -1.235063,0.7441382 -0.434081,0.7389707 -0.434081,2.1445651 0.253214,-0.470254 0.713133,-0.7131325 0.459918,-0.248046 1.054195,-0.248046 1.007688,0 1.596797,0.6304504 0.594277,0.6304505 0.594277,1.6949816 z m -0.945675,0.041341 q 0,-0.7906469 -0.387572,-1.2195599 -0.387572,-0.428913 -1.080034,-0.428913 -0.651121,0 -1.054196,0.3824044 -0.397908,0.3772367 -0.397908,1.0438606 0,0.8423231 0.413411,1.3797563 0.418577,0.5374335 1.069698,0.5374335 0.671792,0 1.054196,-0.4495838 0.382405,-0.4547512 0.382405,-1.2453981 z"
         id="path11120" />
      <path
         d="m 82.204107,8.4880714 q 0,1.1523807 -0.687294,1.8138366 -0.682127,0.661457 -1.896519,0.661457 -1.018023,0 -1.643306,-0.444416 -0.625282,-0.444416 -0.790646,-1.2867394 L 78.12685,9.1236895 q 0.294554,1.0800335 1.514114,1.0800335 0.749306,0 1.173052,-0.4495831 0.423745,-0.4547511 0.423745,-1.245398 0,-0.6872944 -0.428913,-1.1110398 -0.423745,-0.4237454 -1.147213,-0.4237454 -0.377237,0 -0.702797,0.1188554 -0.325561,0.1188555 -0.651121,0.4030749 h -0.909503 l 0.242879,-3.9170611 h 4.139269 V 4.3694728 H 78.488583 L 78.349058,6.679402 q 0.604612,-0.4650864 1.503779,-0.4650864 1.074866,0 1.710484,0.6304504 0.640786,0.6304505 0.640786,1.6433054 z"
         id="path11122" />
      <path
         d="M 83.180787,10.860012 V 10.203723 Q 83.444336,9.5991111 83.821573,9.1391923 84.203977,8.6741059 84.622555,8.3020368 85.041133,7.9248 85.449375,7.6044072 85.862785,7.2840143 86.193513,6.9636215 86.524242,6.6432286 86.725779,6.29183 q 0.206705,-0.3513986 0.206705,-0.7958145 0,-0.5994447 -0.351399,-0.9301729 -0.351398,-0.3307281 -0.976681,-0.3307281 -0.594277,0 -0.981849,0.3255605 -0.382405,0.3203929 -0.449584,0.9043347 L 83.222128,5.37716 q 0.103353,-0.8733289 0.738971,-1.3900916 0.640785,-0.5167626 1.643305,-0.5167626 1.100704,0 1.689814,0.5219303 0.594277,0.5167626 0.594277,1.4727736 0,0.4237454 -0.19637,0.8423232 -0.191202,0.4185777 -0.573606,0.8371555 -0.382405,0.4185778 -1.462439,1.2970743 -0.594277,0.4857569 -0.945675,0.8784966 -0.351399,0.387572 -0.506428,0.7493057 h 3.798206 v 0.790647 z"
         id="path11124" />
      <path
         d="m 96.947347,7.2168352 q 0,1.8241722 -0.645953,2.7853508 -0.640786,0.961179 -1.896519,0.961179 -1.255733,0 -1.886184,-0.956011 -0.63045,-0.9560113 -0.63045,-2.7905188 0,-1.8758485 0.60978,-2.811189 0.614947,-0.9353404 1.93786,-0.9353404 1.286739,0 1.896519,0.9456757 0.614947,0.9456757 0.614947,2.8008537 z m -0.945675,0 q 0,-1.5761262 -0.366902,-2.2840911 -0.361734,-0.7079648 -1.198889,-0.7079648 -0.857826,0 -1.235063,0.6976296 -0.372069,0.6976296 -0.372069,2.2944263 0,1.550288 0.377237,2.2685881 0.382404,0.7182997 1.209224,0.7182997 0.821653,0 1.204057,-0.7338025 0.382405,-0.7338031 0.382405,-2.2530853 z"
         id="path11126" />
      <path
         d="m 102.74542,7.0721416 q 0,1.8758485 -0.68729,2.8835358 -0.68213,1.0076876 -1.9482,1.0076876 -0.852655,0 -1.369418,-0.356567 -0.511595,-0.361734 -0.733803,-1.1627157 l 0.888832,-0.1395259 q 0.279052,0.9095026 1.229899,0.9095026 0.80098,0 1.24023,-0.7441385 0.43924,-0.7441383 0.45992,-2.1238947 -0.20671,0.4650865 -0.70797,0.7493059 -0.50126,0.2790519 -1.1007,0.2790519 -0.981853,0 -1.570962,-0.6717915 -0.58911,-0.6717915 -0.58911,-1.7828312 0,-1.1420456 0.640786,-1.7931665 0.640786,-0.6562886 1.782836,-0.6562886 1.21439,0 1.83967,0.899167 0.62528,0.8991671 0.62528,2.7026688 z m -1.01285,-0.899167 q 0,-0.8784966 -0.40308,-1.4107621 -0.40307,-0.5374332 -1.08003,-0.5374332 -0.671792,0 -1.059364,0.4599188 -0.387572,0.4547511 -0.387572,1.2350628 0,0.7958145 0.387572,1.2609009 0.387572,0.4599188 1.049024,0.4599188 0.40308,0 0.74931,-0.180867 0.34623,-0.1860345 0.5426,-0.5219303 0.20154,-0.3358957 0.20154,-0.7648087 z"
         id="path11128" />
      <path
         d="m 111.57173,7.0721416 q 0,1.8758485 -0.6873,2.8835358 -0.68212,1.0076876 -1.94819,1.0076876 -0.85266,0 -1.36942,-0.356567 -0.5116,-0.361734 -0.73381,-1.1627157 l 0.88884,-0.1395259 q 0.27905,0.9095026 1.22989,0.9095026 0.80098,0 1.24023,-0.7441385 0.43925,-0.7441383 0.45992,-2.1238947 -0.2067,0.4650865 -0.70796,0.7493059 -0.50126,0.2790519 -1.10071,0.2790519 -0.98185,0 -1.57096,-0.6717915 -0.58911,-0.6717915 -0.58911,-1.7828312 0,-1.1420456 0.64079,-1.7931665 0.64078,-0.6562886 1.78283,-0.6562886 1.21439,0 1.83968,0.899167 0.62528,0.8991671 0.62528,2.7026688 z m -1.01286,-0.899167 q 0,-0.8784966 -0.40307,-1.4107621 -0.40308,-0.5374332 -1.08004,-0.5374332 -0.67179,0 -1.05936,0.4599188 -0.38757,0.4547511 -0.38757,1.2350628 0,0.7958145 0.38757,1.2609009 0.38757,0.4599188 1.04903,0.4599188 0.40307,0 0.74931,-0.180867 0.34623,-0.1860345 0.5426,-0.5219303 0.20153,-0.3358957 0.20153,-0.7648087 z"
         id="path11130" />
      <path
         d="m 112.60525,10.860012 v -0.656289 q 0.26355,-0.6046119 0.64079,-1.0645307 0.3824,-0.4650864 0.80098,-0.8371555 0.41858,-0.3772368 0.82682,-0.6976296 0.41341,-0.3203929 0.74414,-0.6407857 0.33073,-0.3203929 0.53226,-0.6717915 0.20671,-0.3513986 0.20671,-0.7958145 0,-0.5994447 -0.3514,-0.9301729 -0.3514,-0.3307281 -0.97668,-0.3307281 -0.59428,0 -0.98185,0.3255605 -0.3824,0.3203929 -0.44958,0.9043347 l -0.95085,-0.08785 q 0.10336,-0.8733289 0.73897,-1.3900916 0.64079,-0.5167626 1.64331,-0.5167626 1.1007,0 1.68981,0.5219303 0.59428,0.5167626 0.59428,1.4727736 0,0.4237454 -0.19637,0.8423232 -0.1912,0.4185777 -0.57361,0.8371555 -0.3824,0.4185778 -1.46243,1.2970743 -0.59428,0.4857569 -0.94568,0.8784966 -0.3514,0.387572 -0.50643,0.7493057 h 3.79821 v 0.790647 z"
         id="path11132" />
      <path
         d="m 121.43156,10.860012 v -0.656289 q 0.26355,-0.6046119 0.64079,-1.0645307 0.3824,-0.4650864 0.80098,-0.8371555 0.41858,-0.3772368 0.82682,-0.6976296 0.41341,-0.3203929 0.74414,-0.6407857 0.33073,-0.3203929 0.53226,-0.6717915 0.20671,-0.3513986 0.20671,-0.7958145 0,-0.5994447 -0.3514,-0.9301729 -0.3514,-0.3307281 -0.97668,-0.3307281 -0.59428,0 -0.98185,0.3255605 -0.38241,0.3203929 -0.44958,0.9043347 L 121.4729,5.37716 q 0.10335,-0.8733289 0.73897,-1.3900916 0.64079,-0.5167626 1.64331,-0.5167626 1.1007,0 1.68981,0.5219303 0.59428,0.5167626 0.59428,1.4727736 0,0.4237454 -0.19637,0.8423232 -0.1912,0.4185777 -0.57361,0.8371555 -0.3824,0.4185778 -1.46244,1.2970743 -0.59427,0.4857569 -0.94567,0.8784966 -0.3514,0.387572 -0.50643,0.7493057 h 3.79821 v 0.790647 z"
         id="path11134" />
      <path
         d="m 132.13888,4.3332994 q -1.1162,1.7053169 -1.57612,2.6716631 -0.45992,0.9663462 -0.69247,1.9068543 -0.22737,0.940508 -0.22737,1.9481952 h -0.97152 q 0,-1.3952592 0.58911,-2.935212 0.59428,-1.5451204 1.97921,-3.5553272 h -3.9119 V 3.5788259 h 4.81106 z"
         id="path11136" />
    </g>
  </g>
</svg>
